<svg width="60" height="60" viewBox="0 0 60 60" fill="none" xmlns="http://www.w3.org/2000/svg">
<path d="M48.0748 40H11.9248C11.5933 40 11.2753 39.8683 11.0409 39.6339C10.8065 39.3994 10.6748 39.0815 10.6748 38.75V14.725C10.6814 13.7281 11.082 12.7743 11.7893 12.0718C12.4965 11.3692 13.4529 10.975 14.4498 10.975H29.9998C30.3313 10.975 30.6493 11.1067 30.8837 11.3411C31.1181 11.5755 31.2498 11.8935 31.2498 12.225C31.2498 12.5565 31.1181 12.8744 30.8837 13.1089C30.6493 13.3433 30.3313 13.475 29.9998 13.475H14.4498C14.1159 13.4749 13.7954 13.6058 13.557 13.8395C13.3186 14.0733 13.1814 14.3912 13.1748 14.725V37.5H46.8248V25.425C46.8248 25.0935 46.9565 24.7755 47.1909 24.5411C47.4253 24.3067 47.7433 24.175 48.0748 24.175C48.4043 24.1814 48.7186 24.3151 48.9516 24.5482C49.1847 24.7812 49.3184 25.0955 49.3248 25.425V38.625C49.3423 38.7993 49.323 38.9754 49.2681 39.1418C49.2132 39.3082 49.1239 39.4612 49.006 39.5908C48.8881 39.7205 48.7443 39.8239 48.5839 39.8944C48.4235 39.9649 48.25 40.0009 48.0748 40Z" fill="#760AFF"/>
<path d="M51.875 49.025H8.125C7.79348 49.025 7.47554 48.8933 7.24112 48.6589C7.0067 48.4245 6.875 48.1065 6.875 47.775V38.625C6.875 38.2935 7.0067 37.9755 7.24112 37.7411C7.47554 37.5067 7.79348 37.375 8.125 37.375H51.875C52.2065 37.375 52.5245 37.5067 52.7589 37.7411C52.9933 37.9755 53.125 38.2935 53.125 38.625V47.775C53.125 48.1065 52.9933 48.4245 52.7589 48.6589C52.5245 48.8933 52.2065 49.025 51.875 49.025ZM9.375 46.525H50.625V40H9.375V46.525Z" fill="#760AFF"/>
<path d="M30.2002 31.5749C30.0438 31.6103 29.8815 31.6103 29.7252 31.5749C29.4969 31.4811 29.3015 31.3219 29.1636 31.1172C29.0257 30.9126 28.9514 30.6717 28.9502 30.4249V20.7999C28.9502 20.4684 29.0819 20.1504 29.3163 19.916C29.5507 19.6816 29.8687 19.5499 30.2002 19.5499C30.5317 19.5499 30.8497 19.6816 31.0841 19.916C31.3185 20.1504 31.4502 20.4684 31.4502 20.7999V27.2999L42.5002 16.2749C42.6151 16.16 42.7515 16.0689 42.9017 16.0067C43.0518 15.9445 43.2127 15.9125 43.3752 15.9125C43.5377 15.9125 43.6986 15.9445 43.8487 16.0067C43.9989 16.0689 44.1353 16.16 44.2502 16.2749C44.3651 16.3898 44.4563 16.5262 44.5184 16.6764C44.5806 16.8265 44.6126 16.9874 44.6126 17.1499C44.6126 17.3124 44.5806 17.4733 44.5184 17.6235C44.4563 17.7736 44.3651 17.91 44.2502 18.0249L31.0752 31.1999C30.9636 31.32 30.8281 31.4154 30.6774 31.48C30.5267 31.5446 30.3641 31.5769 30.2002 31.5749Z" fill="#760AFF"/>
<path d="M39.7252 31.575H30.2002C29.8687 31.575 29.5507 31.4433 29.3163 31.2088C29.0819 30.9744 28.9502 30.6565 28.9502 30.325C28.9502 29.9934 29.0819 29.6755 29.3163 29.4411C29.5507 29.2066 29.8687 29.075 30.2002 29.075H39.7252C40.0567 29.075 40.3747 29.2066 40.6091 29.4411C40.8435 29.6755 40.9752 29.9934 40.9752 30.325C40.9752 30.6565 40.8435 30.9744 40.6091 31.2088C40.3747 31.4433 40.0567 31.575 39.7252 31.575Z" fill="#760AFF"/>
</svg>
